<svg width="159" height="111" viewBox="0 0 159 111" fill="none" xmlns="http://www.w3.org/2000/svg">
<g filter="url(#filter0_i_216_37)">
<path d="M0 75.3214C0 95.019 16.0242 111 35.775 111H127.2C144.765 111 159 96.8029 159 79.2857C159 63.9489 148.069 51.1393 133.56 48.2156C134.579 45.5645 135.15 42.6656 135.15 39.6429C135.15 26.5112 124.467 15.8571 111.3 15.8571C106.406 15.8571 101.835 17.3437 98.0583 19.871C91.1766 7.97812 78.3323 0 63.6 0C41.6381 0 23.85 17.7402 23.85 39.6429C23.85 40.3118 23.8748 40.9808 23.8997 41.6498C9.98719 46.5308 0 59.7616 0 75.3214Z" fill="#E6E6E6"/>
</g>
<path d="M61.833 61.3846C61.7419 64.2128 63.1746 65.4652 63.21 66.2606C63.1931 66.4225 63.1372 66.578 63.0469 66.7142C62.9567 66.8504 62.8347 66.9633 62.6911 67.0435L61.0711 68.1622C60.8615 68.3072 60.6143 68.3904 60.3586 68.402C60.3042 68.3995 59.3221 68.6305 57.7666 65.2042C56.8177 66.3729 55.6102 67.3119 54.2368 67.9492C52.8633 68.5866 51.3603 68.9055 49.8427 68.8815C47.7823 68.9926 42.1984 67.7277 42.4857 61.8629C42.2845 57.0831 46.7964 54.1138 51.4627 54.3648C52.3612 54.3673 54.1964 54.411 57.4097 55.1477V53.1973C57.7502 49.8934 55.5493 47.33 51.7386 47.7146C51.4348 47.7158 49.2833 47.6521 45.937 48.9769C45.0055 49.399 44.8866 49.3291 44.5765 49.3291C43.6387 49.3291 44.0247 46.647 44.2044 46.3074C44.8638 45.5082 48.7429 44.0161 52.5498 44.0373C55.0953 43.8152 57.6271 44.5903 59.598 46.195C60.3991 47.0791 61.0104 48.1143 61.3947 49.238C61.7791 50.3617 61.9286 51.5506 61.8343 52.7328L61.833 61.3846ZM50.8957 65.429C55 65.3703 56.7377 62.9355 57.1338 61.6244C57.4452 60.3695 57.3933 59.5754 57.3933 58.2031C56.1694 57.9134 54.4077 57.5975 52.3865 57.595C50.4692 57.4527 46.9672 58.298 47.1039 61.6231C46.947 63.7196 48.5113 65.5439 50.8957 65.429ZM72.5274 68.3071C71.5326 68.397 71.0694 67.7003 70.9226 67.0123L64.6199 46.4534C64.4971 46.1063 64.4161 45.748 64.3769 45.3821C64.3536 45.2313 64.392 45.0775 64.4836 44.9546C64.5752 44.8317 64.7125 44.7497 64.8654 44.7266C64.8958 44.7216 64.5958 44.7266 67.6814 44.7266C68.7926 44.6167 69.1545 45.4795 69.2697 46.0214L73.7904 63.606L77.9872 46.0214C78.0543 45.6194 78.3593 44.6392 79.6072 44.7428H81.7789C82.0536 44.7203 83.185 44.6804 83.3837 46.0377L87.6134 63.847L92.2797 46.0377C92.3404 45.7654 92.6239 44.618 93.8844 44.7428H96.3802C96.4878 44.7266 97.1586 44.6417 97.0447 45.8141C96.9902 46.0451 97.4762 44.4831 90.3686 67.0285C90.223 67.7165 89.7586 68.4132 88.7638 68.3233H86.3984C85.0138 68.4669 84.8151 67.1171 84.7936 66.981L80.5969 49.8585L76.4482 66.9636C76.428 67.0997 76.2293 68.4494 74.8434 68.3058H72.5274V68.3071ZM107.139 69.0101C106.395 69.0113 102.846 68.9726 99.8796 67.4755C99.5841 67.3521 99.3324 67.1448 99.1564 66.8801C98.9805 66.6153 98.8881 66.305 98.8912 65.9884V64.6461C98.8912 63.591 99.6758 63.7845 100.009 63.9106C101.279 64.4176 102.094 64.8022 103.655 65.1093C108.293 66.0496 110.333 64.8221 110.833 64.5499C112.498 63.5748 112.629 61.3434 111.498 60.186C110.172 59.0884 109.539 59.0472 104.774 57.5638C104.186 57.4027 99.243 55.8644 99.2316 51.026C99.1544 47.4998 102.402 44.0111 108.03 44.0398C109.634 44.0386 113.906 44.5555 115.063 45.9902C115.234 46.2512 115.319 46.5583 115.306 46.8692V48.1316C115.306 48.686 115.101 48.9632 114.69 48.9632C113.714 48.8558 111.983 47.5685 108.468 47.6209C107.596 47.576 103.42 47.7345 103.607 50.7388C103.552 53.1062 106.975 53.994 107.366 54.0964C111.98 55.4661 113.523 55.6934 115.354 57.7898C117.523 60.568 116.354 63.8207 115.905 64.7123C113.49 69.3934 107.245 69.0126 107.139 69.0101ZM112.227 82.1033C103.364 88.5612 90.4977 91.9987 79.5122 91.9987C64.6896 92.0952 50.3664 86.7179 39.3584 76.9239C38.532 76.1885 39.261 75.1808 40.2659 75.7415C52.477 82.6329 66.3025 86.2539 80.3703 86.245C90.8758 86.1894 101.267 84.0868 110.946 80.058C112.437 79.4337 113.701 81.0319 112.227 82.1033ZM115.921 77.9466C114.787 76.5081 108.419 77.2748 105.567 77.6107C104.708 77.7068 104.562 76.9714 105.341 76.4282C110.412 72.9108 118.741 73.9185 119.698 75.1009C120.653 76.2834 119.438 84.5169 114.691 88.4501C113.962 89.0582 113.265 88.7373 113.589 87.9382C114.657 85.2848 117.055 79.3862 115.921 77.9466Z" fill="#FF9900"/>
<path d="M70.8647 67.0123C71.0115 67.7003 71.4747 68.397 72.4694 68.3071V68.3058H74.7855C76.1693 68.4492 76.3694 67.1037 76.3902 66.9642L76.3903 66.9636L80.5389 49.8585L84.7357 66.981L84.7363 66.9852C84.7611 67.1425 84.969 68.4656 86.3405 68.3233H88.7059C89.7006 68.4132 90.1651 67.7165 90.3107 67.0285C97.4183 44.4831 96.9323 46.0451 96.9867 45.8141C97.1006 44.6417 96.4299 44.7266 96.3223 44.7428H93.8265C92.566 44.618 92.2825 45.7654 92.2217 46.0377L87.5554 63.847L83.3258 46.0377C83.1271 44.6804 81.9957 44.7203 81.721 44.7428H79.5492C78.3014 44.6392 77.9963 45.6194 77.9293 46.0214L73.7325 63.606L69.2118 46.0214C69.0966 45.4795 68.7346 44.6167 67.6234 44.7266C64.5379 44.7266 64.8379 44.7216 64.8075 44.7266C64.6546 44.7497 64.5173 44.8317 64.4257 44.9546C64.3341 45.0775 64.2957 45.2313 64.319 45.3821C64.3582 45.748 64.4392 46.1063 64.562 46.4534L70.8647 67.0123Z" fill="#252F3E"/>
<path d="M99.8217 67.4755C102.788 68.9726 106.337 69.0113 107.081 69.0101C107.188 69.0126 113.432 69.3934 115.847 64.7123C116.296 63.8207 117.465 60.568 115.296 57.7898C113.465 55.6934 111.922 55.4661 107.308 54.0964L107.304 54.0953C106.894 53.988 103.495 53.0983 103.549 50.7388C103.362 47.7345 107.538 47.576 108.41 47.6209C111.925 47.5685 113.656 48.8558 114.632 48.9632C115.043 48.9632 115.248 48.686 115.248 48.1316V46.8692C115.261 46.5583 115.176 46.2512 115.005 45.9902C113.848 44.5555 109.576 44.0386 107.972 44.0398C102.344 44.0111 99.0965 47.4998 99.1737 51.026C99.1851 55.8644 104.129 57.4027 104.716 57.5638C109.481 59.0472 110.114 59.0884 111.44 60.186C112.571 61.3434 112.44 63.5748 110.775 64.5499C110.276 64.8221 108.235 66.0496 103.597 65.1093C102.036 64.8022 101.221 64.4176 99.9508 63.9106C99.6179 63.7845 98.8332 63.591 98.8332 64.6461V65.9884C98.8302 66.305 98.9225 66.6153 99.0985 66.8801C99.2745 67.1448 99.5262 67.3521 99.8217 67.4755Z" fill="#252F3E"/>
<path fill-rule="evenodd" clip-rule="evenodd" d="M62.7656 65.2838C62.9766 65.686 63.1404 65.9981 63.1521 66.2606C63.1352 66.4225 63.0793 66.578 62.989 66.7142C62.8987 66.8504 62.7767 66.9633 62.6332 67.0435L61.0132 68.1622C60.8036 68.3072 60.5564 68.3904 60.3007 68.402C60.2984 68.4019 60.2945 68.4022 60.289 68.4026C60.1632 68.4124 59.1992 68.4874 57.7087 65.2042C56.7597 66.3729 55.5523 67.3119 54.1789 67.9492C52.8054 68.5866 51.3024 68.9055 49.7848 68.8815C47.7244 68.9926 42.1405 67.7277 42.4278 61.8629C42.2266 57.0831 46.7384 54.1138 51.4047 54.3648C52.3033 54.3673 54.1384 54.411 57.3518 55.1477V53.1973C57.6923 49.8934 55.4914 47.33 51.6806 47.7146C51.6684 47.7146 51.6532 47.7146 51.6351 47.7145C51.2021 47.7129 49.091 47.7054 45.8791 48.9769C45.0668 49.345 44.8724 49.3389 44.6303 49.3313C44.5948 49.3302 44.5582 49.3291 44.5186 49.3291C43.5808 49.3291 43.9668 46.647 44.1465 46.3074C44.8059 45.5082 48.6849 44.0161 52.4919 44.0373C55.0373 43.8152 57.5691 44.5903 59.54 46.195C60.3412 47.0791 60.9524 48.1143 61.3368 49.238C61.7212 50.3617 61.8707 51.5506 61.7764 52.7328L61.7751 61.3846C61.714 63.2797 62.3371 64.4672 62.7656 65.2838ZM57.0759 61.6244C56.6798 62.9355 54.9421 65.3703 50.8377 65.429C48.4533 65.5439 46.8891 63.7196 47.046 61.6231C46.9093 58.298 50.4112 57.4527 52.3286 57.595C54.3498 57.5975 56.1115 57.9134 57.3354 58.2031C57.3354 58.3823 57.3362 58.5516 57.3371 58.7134C57.3427 59.7906 57.3466 60.5334 57.0759 61.6244Z" fill="#252F3E"/>
<defs>
<filter id="filter0_i_216_37" x="0" y="0" width="159" height="115" filterUnits="userSpaceOnUse" color-interpolation-filters="sRGB">
<feFlood flood-opacity="0" result="BackgroundImageFix"/>
<feBlend mode="normal" in="SourceGraphic" in2="BackgroundImageFix" result="shape"/>
<feColorMatrix in="SourceAlpha" type="matrix" values="0 0 0 0 0 0 0 0 0 0 0 0 0 0 0 0 0 0 127 0" result="hardAlpha"/>
<feOffset dy="4"/>
<feGaussianBlur stdDeviation="2"/>
<feComposite in2="hardAlpha" operator="arithmetic" k2="-1" k3="1"/>
<feColorMatrix type="matrix" values="0 0 0 0 0 0 0 0 0 0 0 0 0 0 0 0 0 0 0.25 0"/>
<feBlend mode="normal" in2="shape" result="effect1_innerShadow_216_37"/>
</filter>
</defs>
</svg>
