<svg width="150" height="90" viewBox="0 0 150 90" fill="none" xmlns="http://www.w3.org/2000/svg">
<path d="M42.2834 32.5962C42.1146 37.899 44.7677 40.2472 44.8333 41.7386C44.8021 42.0421 44.6986 42.3338 44.5314 42.5891C44.3642 42.8445 44.1382 43.0562 43.8724 43.2065L40.8725 45.3042C40.4842 45.5761 40.0266 45.732 39.5529 45.7537C39.4522 45.749 37.6334 46.1822 34.753 39.7579C32.9957 41.9492 30.7597 43.7097 28.2163 44.9048C25.6729 46.0999 22.8894 46.6978 20.079 46.6527C16.2635 46.8611 5.92303 44.4895 6.45506 33.4929C6.08241 24.5308 14.4377 18.9634 23.079 19.434C24.743 19.4387 28.1414 19.5206 34.0921 20.9019V17.245C34.7226 11.0502 30.6468 6.24373 23.5899 6.96482C23.0274 6.96716 19.0431 6.84776 12.8464 9.33177C11.1214 10.1231 10.9011 9.99198 10.3269 9.99198C8.59018 9.99198 9.30501 4.9631 9.63781 4.3263C10.8589 2.82793 18.0424 0.0302048 25.0922 0.0700051C29.806 -0.346429 34.4945 1.1068 38.1444 4.11559C39.628 5.77335 40.7599 7.71429 41.4717 9.8212C42.1835 11.9281 42.4604 14.1573 42.2857 16.3741L42.2834 32.5962ZM22.029 40.1793C29.6297 40.0693 32.8476 35.504 33.5812 33.0457C34.1577 30.6928 34.0616 29.2038 34.0616 26.6308C31.7953 26.0877 28.5328 25.4954 24.7899 25.4907C21.2392 25.2238 14.7541 26.8088 15.0073 33.0434C14.7166 36.9742 17.6135 40.3947 22.029 40.1793ZM62.0877 45.5758C60.2456 45.7444 59.3878 44.438 59.1159 43.148L47.4442 4.60021C47.2169 3.94936 47.0669 3.27744 46.9942 2.59147C46.9512 2.30866 47.0223 2.02035 47.1919 1.78987C47.3615 1.5594 47.6158 1.40563 47.8989 1.36234C47.9552 1.35298 47.3997 1.36234 53.1137 1.36234C55.1714 1.15632 55.8417 2.77408 56.055 3.79016L64.4268 36.7612L72.1985 3.79016C72.3227 3.0363 72.8876 1.19846 75.1985 1.39278H79.2203C79.7289 1.35064 81.8241 1.27572 82.1921 3.8206L90.0248 37.213L98.666 3.8206C98.7785 3.31022 99.3035 1.15866 101.638 1.39278H106.26C106.459 1.36234 107.701 1.20314 107.49 3.40152C107.389 3.83464 108.289 0.905812 95.127 43.1784C94.8575 44.4684 93.9974 45.7748 92.1552 45.6062H87.7748C85.2108 45.8755 84.8428 43.3446 84.803 43.0894L77.0312 10.9846L69.3485 43.0567C69.3111 43.3119 68.9431 45.8427 66.3767 45.5734H62.0877V45.5758ZM126.184 46.8939C124.805 46.8962 118.234 46.8236 112.74 44.0166C112.193 43.7851 111.727 43.3965 111.401 42.9001C111.075 42.4037 110.904 41.8218 110.91 41.2282V38.7114C110.91 36.7331 112.363 37.096 112.979 37.3324C115.332 38.283 116.842 39.0041 119.731 39.58C128.321 41.3429 132.099 39.0415 133.025 38.5311C136.107 36.7027 136.351 32.519 134.255 30.3487C131.799 28.2908 130.627 28.2135 121.803 25.4322C120.716 25.1301 111.561 22.2458 111.54 13.1737C111.397 6.56214 117.411 0.0208392 127.834 0.0746867C130.803 0.0723455 138.715 1.0416 140.858 3.73163C141.174 4.22094 141.331 4.79688 141.308 5.37983V7.74678C141.308 8.78627 140.928 9.30601 140.166 9.30601C138.359 9.10467 135.153 6.6909 128.644 6.78923C127.03 6.70495 119.295 7.00228 119.642 12.6352C119.541 17.0741 125.879 18.7387 126.603 18.9307C135.148 21.499 138.005 21.925 141.397 25.8559C145.414 31.0651 143.248 37.1639 142.416 38.8355C137.944 47.6126 126.38 46.8986 126.184 46.8939ZM135.605 71.4436C119.192 83.5523 95.3661 89.9976 75.0227 89.9976C47.5732 90.1784 21.0489 80.096 0.663744 61.7324C-0.866699 60.3534 0.483279 58.4641 2.34419 59.5153C24.9574 72.4367 50.5603 79.226 76.6117 79.2094C96.0662 79.1052 115.309 75.1628 133.233 67.6088C135.994 66.4382 138.336 69.4349 135.605 71.4436ZM142.447 63.6498C140.347 60.9528 128.553 62.3902 123.273 63.02C121.681 63.2003 121.412 61.8213 122.853 60.8029C132.244 54.2078 147.668 56.0971 149.44 58.3142C151.21 60.5313 148.96 75.9692 140.168 83.3439C138.818 84.4841 137.527 83.8824 138.127 82.384C140.105 77.409 144.547 66.3492 142.447 63.6498Z" fill="#FF9900"/>
<path d="M59.0086 43.148C59.2805 44.438 60.1383 45.7444 61.9805 45.5758V45.5735H66.2695C68.832 45.8423 69.2027 43.3194 69.2411 43.0578L69.2413 43.0567L76.924 10.9847L84.6957 43.0894L84.6969 43.0973C84.7427 43.3922 85.1278 45.8729 87.6675 45.6062H92.0479C93.8901 45.7748 94.7502 44.4684 95.0198 43.1784C108.182 0.905812 107.282 3.83464 107.383 3.40152C107.594 1.20314 106.352 1.36234 106.152 1.39278H101.531C99.1963 1.15866 98.6713 3.31022 98.5588 3.8206L89.9175 37.213L82.0848 3.8206C81.7169 1.27572 79.6216 1.35064 79.113 1.39278H75.0912C72.7803 1.19846 72.2155 3.0363 72.0912 3.79016L64.3195 36.7612L55.9478 3.79016C55.7345 2.77408 55.0642 1.15632 53.0064 1.36234C47.2924 1.36234 47.8479 1.35298 47.7916 1.36234C47.5086 1.40563 47.2543 1.5594 47.0846 1.78987C46.915 2.02035 46.8439 2.30866 46.887 2.59147C46.9596 3.27744 47.1096 3.94936 47.337 4.60022L59.0086 43.148Z" fill="#252F3E"/>
<path d="M112.633 44.0166C118.126 46.8236 124.698 46.8962 126.076 46.8939C126.273 46.8986 137.837 47.6126 142.309 38.8355C143.141 37.1639 145.306 31.0651 141.289 25.8559C137.898 21.9251 135.041 21.499 126.496 18.9307L126.488 18.9287C125.729 18.7276 119.435 17.0593 119.535 12.6352C119.188 7.00228 126.922 6.70495 128.537 6.78923C135.046 6.6909 138.252 9.10467 140.059 9.30602C140.821 9.30602 141.2 8.78627 141.2 7.74678V5.37983C141.224 4.79688 141.067 4.22094 140.75 3.73163C138.608 1.0416 130.696 0.0723455 127.726 0.0746867C117.304 0.0208392 111.29 6.56214 111.433 13.1737C111.454 22.2458 120.608 25.1301 121.696 25.4322C130.52 28.2135 131.692 28.2908 134.148 30.3487C136.243 32.519 136 36.7027 132.918 38.5311C131.992 39.0415 128.214 41.3429 119.624 39.58C116.734 39.0041 115.225 38.283 112.872 37.3324C112.255 37.096 110.802 36.7331 110.802 38.7114V41.2282C110.797 41.8218 110.968 42.4037 111.294 42.9001C111.619 43.3965 112.086 43.7851 112.633 44.0166Z" fill="#252F3E"/>
<path fill-rule="evenodd" clip-rule="evenodd" d="M44.0104 39.9072C44.4011 40.6612 44.7044 41.2465 44.7261 41.7386C44.6948 42.0421 44.5913 42.3338 44.4241 42.5891C44.2569 42.8445 44.031 43.0562 43.7651 43.2065L40.7652 45.3042C40.377 45.5761 39.9193 45.732 39.4457 45.7537C39.4415 45.7535 39.4343 45.7541 39.4241 45.7549C39.1912 45.7733 37.4059 45.9139 34.6458 39.7579C32.8884 41.9492 30.6524 43.7097 28.109 44.9048C25.5656 46.0999 22.7822 46.6978 19.9718 46.6527C16.1562 46.8611 5.81577 44.4895 6.34779 33.4929C5.97514 24.5308 14.3305 18.9634 22.9717 19.434C24.6358 19.4387 28.0342 19.5206 33.9848 20.9019V17.245C34.6153 11.0502 30.5396 6.24373 23.4827 6.96482C23.4601 6.96492 23.432 6.96481 23.3984 6.96469C22.5965 6.96177 18.687 6.94753 12.7391 9.33177C11.2348 10.0218 10.8748 10.0104 10.4265 9.99622C10.3607 9.99413 10.2931 9.99198 10.2196 9.99198C8.48291 9.99198 9.19774 4.9631 9.53055 4.3263C10.7516 2.82793 17.9351 0.0302048 24.985 0.0700051C29.6988 -0.346429 34.3873 1.1068 38.0371 4.11559C39.5208 5.77335 40.6527 7.71429 41.3644 9.8212C42.0762 11.9281 42.3531 14.1573 42.1785 16.3741L42.1761 32.5962C42.063 36.1494 43.2169 38.376 44.0104 39.9072ZM33.4739 33.0457C32.7403 35.504 29.5224 40.0693 21.9218 40.1793C17.5062 40.3947 14.6094 36.9742 14.9 33.0434C14.6469 26.8088 21.1319 25.2238 24.6826 25.4907C28.4256 25.4954 31.688 26.0877 33.9544 26.6308C33.9544 26.9668 33.956 27.2843 33.9576 27.5876C33.968 29.6074 33.9752 31 33.4739 33.0457Z" fill="#252F3E"/>
</svg>
