<svg width="753" height="190" viewBox="0 0 753 185" fill="none" xmlns="http://www.w3.org/2000/svg">
<path d="M69.24 138.54C70.12 138.54 70.9 138.88 71.58 139.56L77.94 146.46C74.42 150.82 70.08 154.16 64.92 156.48C59.8 158.8 53.64 159.96 46.44 159.96C40 159.96 34.2 158.86 29.04 156.66C23.92 154.46 19.54 151.4 15.9 147.48C12.26 143.56 9.46 138.88 7.5 133.44C5.58 128 4.62 122.06 4.62 115.62C4.62 109.1 5.66 103.14 7.74 97.74C9.82 92.3 12.74 87.62 16.5 83.7C20.3 79.78 24.82 76.74 30.06 74.58C35.3 72.38 41.1 71.28 47.46 71.28C53.78 71.28 59.38 72.32 64.26 74.4C69.18 76.48 73.36 79.2 76.8 82.56L71.4 90.06C71.08 90.54 70.66 90.96 70.14 91.32C69.66 91.68 68.98 91.86 68.1 91.86C67.5 91.86 66.88 91.7 66.24 91.38C65.6 91.02 64.9 90.6 64.14 90.12C63.38 89.6 62.5 89.04 61.5 88.44C60.5 87.84 59.34 87.3 58.02 86.82C56.7 86.3 55.16 85.88 53.4 85.56C51.68 85.2 49.68 85.02 47.4 85.02C43.52 85.02 39.96 85.72 36.72 87.12C33.52 88.48 30.76 90.48 28.44 93.12C26.12 95.72 24.32 98.92 23.04 102.72C21.76 106.48 21.12 110.78 21.12 115.62C21.12 120.5 21.8 124.84 23.16 128.64C24.56 132.44 26.44 135.64 28.8 138.24C31.16 140.84 33.94 142.84 37.14 144.24C40.34 145.6 43.78 146.28 47.46 146.28C49.66 146.28 51.64 146.16 53.4 145.92C55.2 145.68 56.84 145.3 58.32 144.78C59.84 144.26 61.26 143.6 62.58 142.8C63.94 141.96 65.28 140.94 66.6 139.74C67 139.38 67.42 139.1 67.86 138.9C68.3 138.66 68.76 138.54 69.24 138.54ZM116.807 96.48C121.367 96.48 125.507 97.22 129.227 98.7C132.987 100.18 136.187 102.28 138.827 105C141.507 107.72 143.567 111.04 145.007 114.96C146.447 118.88 147.167 123.26 147.167 128.1C147.167 132.98 146.447 137.38 145.007 141.3C143.567 145.22 141.507 148.56 138.827 151.32C136.187 154.08 132.987 156.2 129.227 157.68C125.507 159.16 121.367 159.9 116.807 159.9C112.207 159.9 108.027 159.16 104.267 157.68C100.507 156.2 97.2869 154.08 94.6069 151.32C91.9669 148.56 89.9069 145.22 88.4269 141.3C86.9869 137.38 86.2669 132.98 86.2669 128.1C86.2669 123.26 86.9869 118.88 88.4269 114.96C89.9069 111.04 91.9669 107.72 94.6069 105C97.2869 102.28 100.507 100.18 104.267 98.7C108.027 97.22 112.207 96.48 116.807 96.48ZM116.807 148.5C121.927 148.5 125.707 146.78 128.147 143.34C130.627 139.9 131.867 134.86 131.867 128.22C131.867 121.58 130.627 116.52 128.147 113.04C125.707 109.56 121.927 107.82 116.807 107.82C111.607 107.82 107.747 109.58 105.227 113.1C102.747 116.58 101.507 121.62 101.507 128.22C101.507 134.82 102.747 139.86 105.227 143.34C107.747 146.78 111.607 148.5 116.807 148.5ZM162.673 159V97.44H171.733C173.653 97.44 174.913 98.34 175.513 100.14L176.473 104.7C177.553 103.5 178.673 102.4 179.833 101.4C181.033 100.4 182.293 99.54 183.613 98.82C184.973 98.1 186.413 97.54 187.933 97.14C189.493 96.7 191.193 96.48 193.033 96.48C196.913 96.48 200.093 97.54 202.573 99.66C205.093 101.74 206.973 104.52 208.213 108C209.173 105.96 210.373 104.22 211.813 102.78C213.253 101.3 214.833 100.1 216.553 99.18C218.273 98.26 220.093 97.58 222.013 97.14C223.973 96.7 225.933 96.48 227.893 96.48C231.293 96.48 234.313 97 236.953 98.04C239.593 99.08 241.813 100.6 243.613 102.6C245.413 104.6 246.773 107.04 247.693 109.92C248.653 112.8 249.133 116.1 249.133 119.82V159H234.313V119.82C234.313 115.9 233.453 112.96 231.733 111C230.013 109 227.493 108 224.173 108C222.653 108 221.233 108.26 219.913 108.78C218.633 109.3 217.493 110.06 216.493 111.06C215.533 112.02 214.773 113.24 214.213 114.72C213.653 116.2 213.373 117.9 213.373 119.82V159H198.493V119.82C198.493 115.7 197.653 112.7 195.973 110.82C194.333 108.94 191.913 108 188.713 108C186.553 108 184.533 108.54 182.653 109.62C180.813 110.66 179.093 112.1 177.493 113.94V159H162.673ZM282.24 143.04C283.92 145.08 285.74 146.52 287.7 147.36C289.7 148.2 291.86 148.62 294.18 148.62C296.42 148.62 298.44 148.2 300.24 147.36C302.04 146.52 303.56 145.24 304.8 143.52C306.08 141.8 307.06 139.64 307.74 137.04C308.42 134.4 308.76 131.3 308.76 127.74C308.76 124.14 308.46 121.1 307.86 118.62C307.3 116.1 306.48 114.06 305.4 112.5C304.32 110.94 303 109.8 301.44 109.08C299.92 108.36 298.18 108 296.22 108C293.14 108 290.52 108.66 288.36 109.98C286.2 111.26 284.16 113.08 282.24 115.44V143.04ZM281.46 105.84C283.98 103 286.84 100.7 290.04 98.94C293.24 97.18 297 96.3 301.32 96.3C304.68 96.3 307.74 97 310.5 98.4C313.3 99.8 315.7 101.84 317.7 104.52C319.74 107.16 321.3 110.44 322.38 114.36C323.5 118.24 324.06 122.7 324.06 127.74C324.06 132.34 323.44 136.6 322.2 140.52C320.96 144.44 319.18 147.84 316.86 150.72C314.58 153.6 311.8 155.86 308.52 157.5C305.28 159.1 301.64 159.9 297.6 159.9C294.16 159.9 291.22 159.38 288.78 158.34C286.34 157.26 284.16 155.78 282.24 153.9V179.1H267.42V97.44H276.48C278.4 97.44 279.66 98.34 280.26 100.14L281.46 105.84ZM379.483 121.14C379.483 119.22 379.203 117.42 378.643 115.74C378.123 114.02 377.323 112.52 376.243 111.24C375.163 109.96 373.783 108.96 372.103 108.24C370.463 107.48 368.543 107.1 366.343 107.1C362.063 107.1 358.683 108.32 356.203 110.76C353.763 113.2 352.203 116.66 351.523 121.14H379.483ZM351.223 130.08C351.463 133.24 352.023 135.98 352.903 138.3C353.783 140.58 354.943 142.48 356.383 144C357.823 145.48 359.523 146.6 361.483 147.36C363.483 148.08 365.683 148.44 368.083 148.44C370.483 148.44 372.543 148.16 374.263 147.6C376.023 147.04 377.543 146.42 378.823 145.74C380.143 145.06 381.283 144.44 382.243 143.88C383.243 143.32 384.203 143.04 385.123 143.04C386.363 143.04 387.283 143.5 387.883 144.42L392.143 149.82C390.503 151.74 388.663 153.36 386.623 154.68C384.583 155.96 382.443 157 380.203 157.8C378.003 158.56 375.743 159.1 373.423 159.42C371.143 159.74 368.923 159.9 366.763 159.9C362.483 159.9 358.503 159.2 354.823 157.8C351.143 156.36 347.943 154.26 345.223 151.5C342.503 148.7 340.363 145.26 338.803 141.18C337.243 137.06 336.463 132.3 336.463 126.9C336.463 122.7 337.143 118.76 338.503 115.08C339.863 111.36 341.803 108.14 344.323 105.42C346.883 102.66 349.983 100.48 353.623 98.88C357.303 97.28 361.443 96.48 366.043 96.48C369.923 96.48 373.503 97.1 376.783 98.34C380.063 99.58 382.883 101.4 385.243 103.8C387.603 106.16 389.443 109.08 390.763 112.56C392.123 116 392.803 119.94 392.803 124.38C392.803 126.62 392.563 128.14 392.083 128.94C391.603 129.7 390.683 130.08 389.323 130.08H351.223ZM421.985 105C423.225 103.76 424.525 102.62 425.885 101.58C427.285 100.5 428.745 99.6 430.265 98.88C431.825 98.12 433.485 97.54 435.245 97.14C437.005 96.7 438.925 96.48 441.005 96.48C444.365 96.48 447.345 97.06 449.945 98.22C452.545 99.34 454.705 100.94 456.425 103.02C458.185 105.06 459.505 107.52 460.385 110.4C461.305 113.24 461.765 116.38 461.765 119.82V159H446.945V119.82C446.945 116.06 446.085 113.16 444.365 111.12C442.645 109.04 440.025 108 436.505 108C433.945 108 431.545 108.58 429.305 109.74C427.065 110.9 424.945 112.48 422.945 114.48V159H408.125V97.44H417.185C419.105 97.44 420.365 98.34 420.965 100.14L421.985 105ZM518.699 113.16C517.019 111.12 515.179 109.68 513.179 108.84C511.219 108 509.099 107.58 506.819 107.58C504.579 107.58 502.559 108 500.759 108.84C498.959 109.68 497.419 110.96 496.139 112.68C494.859 114.36 493.879 116.52 493.199 119.16C492.519 121.76 492.179 124.84 492.179 128.4C492.179 132 492.459 135.06 493.019 137.58C493.619 140.06 494.459 142.1 495.539 143.7C496.619 145.26 497.939 146.4 499.499 147.12C501.059 147.8 502.799 148.14 504.719 148.14C507.799 148.14 510.419 147.5 512.579 146.22C514.739 144.94 516.779 143.12 518.699 140.76V113.16ZM533.519 69.84V159H524.459C522.499 159 521.259 158.1 520.739 156.3L519.479 150.36C516.999 153.2 514.139 155.5 510.899 157.26C507.699 159.02 503.959 159.9 499.679 159.9C496.319 159.9 493.239 159.2 490.439 157.8C487.639 156.4 485.219 154.38 483.179 151.74C481.179 149.06 479.619 145.76 478.499 141.84C477.419 137.92 476.879 133.44 476.879 128.4C476.879 123.84 477.499 119.6 478.739 115.68C479.979 111.76 481.759 108.36 484.079 105.48C486.399 102.6 489.179 100.36 492.419 98.76C495.659 97.12 499.299 96.3 503.339 96.3C506.779 96.3 509.719 96.84 512.159 97.92C514.599 99 516.779 100.46 518.699 102.3V69.84H533.519ZM567.705 97.44V159H552.825V97.44H567.705ZM569.745 79.5C569.745 80.78 569.485 81.98 568.965 83.1C568.445 84.22 567.745 85.2 566.865 86.04C566.025 86.88 565.025 87.56 563.865 88.08C562.705 88.56 561.465 88.8 560.145 88.8C558.865 88.8 557.645 88.56 556.485 88.08C555.365 87.56 554.385 86.88 553.545 86.04C552.705 85.2 552.025 84.22 551.505 83.1C551.025 81.98 550.785 80.78 550.785 79.5C550.785 78.18 551.025 76.94 551.505 75.78C552.025 74.62 552.705 73.62 553.545 72.78C554.385 71.94 555.365 71.28 556.485 70.8C557.645 70.28 558.865 70.02 560.145 70.02C561.465 70.02 562.705 70.28 563.865 70.8C565.025 71.28 566.025 71.94 566.865 72.78C567.745 73.62 568.445 74.62 568.965 75.78C569.485 76.94 569.745 78.18 569.745 79.5ZM640.054 97.44V159H630.994C629.034 159 627.794 158.1 627.274 156.3L626.254 151.38C623.734 153.94 620.954 156.02 617.914 157.62C614.874 159.18 611.294 159.96 607.174 159.96C603.814 159.96 600.834 159.4 598.234 158.28C595.674 157.12 593.514 155.5 591.754 153.42C589.994 151.34 588.654 148.88 587.734 146.04C586.854 143.16 586.414 140 586.414 136.56V97.44H601.234V136.56C601.234 140.32 602.094 143.24 603.814 145.32C605.574 147.36 608.194 148.38 611.674 148.38C614.234 148.38 616.634 147.82 618.874 146.7C621.114 145.54 623.234 143.96 625.234 141.96V97.44H640.054ZM658.948 159V97.44H668.008C669.928 97.44 671.188 98.34 671.788 100.14L672.748 104.7C673.828 103.5 674.948 102.4 676.108 101.4C677.308 100.4 678.568 99.54 679.888 98.82C681.248 98.1 682.688 97.54 684.208 97.14C685.768 96.7 687.468 96.48 689.308 96.48C693.188 96.48 696.368 97.54 698.848 99.66C701.368 101.74 703.248 104.52 704.488 108C705.448 105.96 706.648 104.22 708.088 102.78C709.528 101.3 711.108 100.1 712.828 99.18C714.548 98.26 716.368 97.58 718.288 97.14C720.248 96.7 722.208 96.48 724.168 96.48C727.568 96.48 730.588 97 733.228 98.04C735.868 99.08 738.088 100.6 739.888 102.6C741.688 104.6 743.048 107.04 743.968 109.92C744.928 112.8 745.408 116.1 745.408 119.82V159H730.588V119.82C730.588 115.9 729.728 112.96 728.008 111C726.288 109 723.768 108 720.448 108C718.928 108 717.508 108.26 716.188 108.78C714.908 109.3 713.768 110.06 712.768 111.06C711.808 112.02 711.048 113.24 710.488 114.72C709.928 116.2 709.648 117.9 709.648 119.82V159H694.768V119.82C694.768 115.7 693.928 112.7 692.248 110.82C690.608 108.94 688.188 108 684.988 108C682.828 108 680.808 108.54 678.928 109.62C677.088 110.66 675.368 112.1 673.768 113.94V159H658.948Z" fill="black"/>
<circle cx="542.5" cy="17.5" r="16.5" fill="white" stroke="black" stroke-width="6.5"/>
<circle cx="560" cy="75" r="14" fill="#F5F5F5" stroke="black" stroke-width="6.5"/>
<circle cx="586" cy="35" r="14" fill="white" stroke="black" stroke-width="6.5"/>
<line x1="568.364" y1="63.6025" x2="578.364" y2="47.6025" stroke="black" stroke-width="5"/>
<line x1="573.683" y1="28.6796" x2="558.683" y2="21.6796" stroke="black" stroke-width="5"/>
</svg>
