<svg width="144" height="101" viewBox="0 0 144 101" fill="none" xmlns="http://www.w3.org/2000/svg">
<path d="M78.2355 45.678H63.4578V32.3972H78.2355V45.678ZM78.2355 0H63.4578V13.5715H78.2355V0ZM95.7184 32.3748H80.9407V45.6556H95.7184V32.3748ZM60.775 16.2545H45.9973V29.6918H60.775V16.2545ZM78.2355 16.2545H63.4578V29.6918H78.2355V16.2545ZM140.119 38.6128C136.899 36.444 129.477 35.6615 123.776 36.7347C123.038 31.3687 120.042 26.6958 114.587 22.4924L111.457 20.4131L109.378 23.5433C105.265 29.7589 104.147 39.999 108.551 46.7512C106.606 47.802 102.783 49.233 97.7305 49.1435H0.546304C-1.39872 60.5015 1.84299 75.258 10.3832 85.3863C18.6775 95.2016 31.1078 100.188 47.3611 100.188C82.5504 100.188 108.596 83.9777 120.78 54.5319C125.565 54.6213 135.893 54.5542 141.192 44.4259C141.527 43.867 142.667 41.4746 143.092 40.6027L140.119 38.6128ZM25.854 32.3748H11.0986V45.6556H25.8764V32.3748H25.854ZM43.3145 32.3748H28.5368V45.6556H43.3145V32.3748ZM60.775 32.3748H45.9973V45.6556H60.775V32.3748ZM43.3145 16.2545H28.5368V29.6918H43.3145V16.2545Z" fill="#007BFF"/>
</svg>
