<svg width="116" height="111" viewBox="0 0 116 111" fill="none" xmlns="http://www.w3.org/2000/svg">
<path d="M114.108 43.9309L113.95 43.5256L98.1534 2.59974C97.8362 1.79599 97.2696 1.11607 96.5217 0.654534C95.9778 0.305568 95.3659 0.0883079 94.7087 0.0218917C94.0514 -0.0445246 93.4169 0.0405784 92.805 0.271797C92.1931 0.501439 91.6492 0.870668 91.1959 1.34796C90.7653 1.82526 90.448 2.39937 90.2667 3.023L79.6151 35.4431H36.4421L25.7678 3.023C25.5865 2.39937 25.2692 1.82751 24.8386 1.35022C24.3854 0.87292 23.8415 0.505942 23.2296 0.2763C22.6313 0.0455314 21.9786 -0.0400217 21.3304 0.0257191C20.6823 0.0912347 20.059 0.305568 19.5083 0.654534C18.774 1.11607 18.2052 1.79599 17.8856 2.59974L2.10019 43.5256L1.93611 43.9309C-0.336312 49.8295 -0.616427 56.3136 1.13837 62.3923C2.89407 68.4486 6.58814 73.8069 11.6647 77.6118L11.7258 77.6568L11.8596 77.7469L35.8755 95.6455L47.7963 104.584L55.0484 110.032C55.8869 110.46 56.9294 111 57.9946 111C59.0598 111 60.1023 110.46 60.9408 110.032L68.193 104.584L80.1137 95.6455L104.295 77.6568L104.363 77.5893C109.44 73.7844 113.134 68.4486 114.697 62.3923C116.646 56.3136 116.374 49.8295 114.108 43.9309Z" fill="#E34930"/>
</svg>
