<svg width="127" height="111" viewBox="0 0 127 111" fill="none" xmlns="http://www.w3.org/2000/svg">
<g filter="url(#filter0_i_207_29)">
<path d="M15.875 0C7.11895 0 0 7.11094 0 15.8571V31.7143C0 40.4605 7.11895 47.5714 15.875 47.5714H111.125C119.881 47.5714 127 40.4605 127 31.7143V15.8571C127 7.11094 119.881 0 111.125 0H15.875ZM85.3281 17.8393C86.907 17.8393 88.4212 18.4658 89.5376 19.581C90.654 20.6961 91.2812 22.2086 91.2812 23.7857C91.2812 25.3628 90.654 26.8753 89.5376 27.9905C88.4212 29.1056 86.907 29.7321 85.3281 29.7321C83.7493 29.7321 82.2351 29.1056 81.1186 27.9905C80.0022 26.8753 79.375 25.3628 79.375 23.7857C79.375 22.2086 80.0022 20.6961 81.1186 19.581C82.2351 18.4658 83.7493 17.8393 85.3281 17.8393ZM97.2344 23.7857C97.2344 22.2086 97.8616 20.6961 98.978 19.581C100.094 18.4658 101.609 17.8393 103.188 17.8393C104.766 17.8393 106.281 18.4658 107.397 19.581C108.513 20.6961 109.141 22.2086 109.141 23.7857C109.141 25.3628 108.513 26.8753 107.397 27.9905C106.281 29.1056 104.766 29.7321 103.188 29.7321C101.609 29.7321 100.094 29.1056 98.978 27.9905C97.8616 26.8753 97.2344 25.3628 97.2344 23.7857ZM15.875 63.4286C7.11895 63.4286 0 70.5395 0 79.2857V95.1429C0 103.889 7.11895 111 15.875 111H111.125C119.881 111 127 103.889 127 95.1429V79.2857C127 70.5395 119.881 63.4286 111.125 63.4286H15.875ZM85.3281 81.2679C86.907 81.2679 88.4212 81.8944 89.5376 83.0095C90.654 84.1247 91.2812 85.6372 91.2812 87.2143C91.2812 88.7914 90.654 90.3039 89.5376 91.419C88.4212 92.5342 86.907 93.1607 85.3281 93.1607C83.7493 93.1607 82.2351 92.5342 81.1186 91.419C80.0022 90.3039 79.375 88.7914 79.375 87.2143C79.375 85.6372 80.0022 84.1247 81.1186 83.0095C82.2351 81.8944 83.7493 81.2679 85.3281 81.2679ZM99.2188 87.2143C99.2188 85.6372 99.846 84.1247 100.962 83.0095C102.079 81.8944 103.593 81.2679 105.172 81.2679C106.751 81.2679 108.265 81.8944 109.381 83.0095C110.498 84.1247 111.125 85.6372 111.125 87.2143C111.125 88.7914 110.498 90.3039 109.381 91.419C108.265 92.5342 106.751 93.1607 105.172 93.1607C103.593 93.1607 102.079 92.5342 100.962 91.419C99.846 90.3039 99.2188 88.7914 99.2188 87.2143Z" fill="#426067"/>
</g>
<defs>
<filter id="filter0_i_207_29" x="0" y="0" width="127" height="115" filterUnits="userSpaceOnUse" color-interpolation-filters="sRGB">
<feFlood flood-opacity="0" result="BackgroundImageFix"/>
<feBlend mode="normal" in="SourceGraphic" in2="BackgroundImageFix" result="shape"/>
<feColorMatrix in="SourceAlpha" type="matrix" values="0 0 0 0 0 0 0 0 0 0 0 0 0 0 0 0 0 0 127 0" result="hardAlpha"/>
<feOffset dy="4"/>
<feGaussianBlur stdDeviation="2"/>
<feComposite in2="hardAlpha" operator="arithmetic" k2="-1" k3="1"/>
<feColorMatrix type="matrix" values="0 0 0 0 0 0 0 0 0 0 0 0 0 0 0 0 0 0 0.25 0"/>
<feBlend mode="normal" in2="shape" result="effect1_innerShadow_207_29"/>
</filter>
</defs>
</svg>
